<?xml version="1.0" encoding="utf-8"?>
<!-- Generator: Adobe Illustrator 17.0.0, SVG Export Plug-In . SVG Version: 6.00 Build 0)  -->
<!DOCTYPE svg PUBLIC "-//W3C//DTD SVG 1.1//EN" "http://www.w3.org/Graphics/SVG/1.1/DTD/svg11.dtd">
<svg version="1.1" id="Layer_1" xmlns="http://www.w3.org/2000/svg" xmlns:xlink="http://www.w3.org/1999/xlink" x="0px" y="0px"
	 width="127.977px" height="123.147px" viewBox="0 0 127.977 123.147" enable-background="new 0 0 127.977 123.147"
	 xml:space="preserve">
<g>
	<defs>
		<circle id="SVGID_1_" cx="63.988" cy="61.574" r="53.214"/>
	</defs>
	<clipPath id="SVGID_2_">
		<use xlink:href="#SVGID_1_"  overflow="visible"/>
	</clipPath>
	
		<line clip-path="url(#SVGID_2_)" fill="none" stroke="#FFFFFF" stroke-width="3.8497" stroke-miterlimit="10" x1="17.87" y1="8.359" x2="17.87" y2="35.104"/>
	
		<line clip-path="url(#SVGID_2_)" fill="none" stroke="#FFFFFF" stroke-width="3.8497" stroke-miterlimit="10" x1="24.18" y1="8.359" x2="24.18" y2="35.104"/>
	
		<line clip-path="url(#SVGID_2_)" fill="none" stroke="#FFFFFF" stroke-width="3.8497" stroke-miterlimit="10" x1="30.713" y1="8.359" x2="30.713" y2="35.104"/>
	<circle clip-path="url(#SVGID_2_)" fill="#ED2190" cx="63.988" cy="62.008" r="53.82"/>
	
		<line clip-path="url(#SVGID_2_)" fill="none" stroke="#FFFFFF" stroke-width="4.154" stroke-miterlimit="10" x1="0.519" y1="46.593" x2="132.556" y2="46.593"/>
	<circle clip-path="url(#SVGID_2_)" fill="#FFFFFF" cx="63.988" cy="62.008" r="32.416"/>
	<circle clip-path="url(#SVGID_2_)" fill="#ED2190" cx="63.988" cy="62.008" r="25.899"/>
	<circle clip-path="url(#SVGID_2_)" fill="#FFFFFF" cx="63.988" cy="62.008" r="20.181"/>
	
		<line clip-path="url(#SVGID_2_)" fill="none" stroke="#FFFFFF" stroke-width="4.1196" stroke-miterlimit="10" x1="24.7" y1="7.49" x2="24.7" y2="36.11"/>
	
		<line clip-path="url(#SVGID_2_)" fill="none" stroke="#FFFFFF" stroke-width="4.1196" stroke-miterlimit="10" x1="31.453" y1="7.49" x2="31.453" y2="36.11"/>
	
		<line clip-path="url(#SVGID_2_)" fill="none" stroke="#FFFFFF" stroke-width="4.1196" stroke-miterlimit="10" x1="38.444" y1="7.49" x2="38.444" y2="36.11"/>
	<path clip-path="url(#SVGID_2_)" fill="#FFFFFF" d="M103.49,25.364c0,2.677-2.17,4.847-4.847,4.847h-8.239
		c-2.677,0-4.847-2.17-4.847-4.847v-7.128c0-2.677,2.17-4.847,4.847-4.847h8.239c2.677,0,4.847,2.17,4.847,4.847V25.364z"/>
	<circle clip-path="url(#SVGID_2_)" fill="none" cx="63.988" cy="62.008" r="53.82"/>
</g>
</svg>
