<?xml version="1.0" encoding="utf-8"?>
<!-- Generator: Adobe Illustrator 17.0.0, SVG Export Plug-In . SVG Version: 6.00 Build 0)  -->
<!DOCTYPE svg PUBLIC "-//W3C//DTD SVG 1.1//EN" "http://www.w3.org/Graphics/SVG/1.1/DTD/svg11.dtd">
<svg version="1.1" id="Layer_1" xmlns="http://www.w3.org/2000/svg" xmlns:xlink="http://www.w3.org/1999/xlink" x="0px" y="0px"
	 width="99.001px" height="94.171px" viewBox="0 0 99.001 94.171" enable-background="new 0 0 99.001 94.171" xml:space="preserve">
<circle fill="none" cx="48.044" cy="48.749" r="38.02"/>
<circle fill="#ED2190" cx="48.044" cy="48.749" r="38.02"/>
<path fill="#FFFFFF" d="M48.445,43.218c0,0-1.686-11.425,10.114-13.298c0,0,6.555-0.187,8.99,3.371c0,0,4.276-0.749,6.942-2.479
	c0,0-1.513,4.233-4.395,5.755c0,0,2.954,0.081,5.909-1.36c0,0-3.459,5.404-5.476,5.476c0,0,2.003,17.485-14.813,28.467
	c0,0-13.613,9.495-33.632-0.458c0,0,9.152,1.487,16.473-4.576c0,0-8.008,0.114-10.181-7.779h4.805c0,0-8.808-1.945-8.58-11.096
	c0,0,2.745,1.487,4.576,1.258c0,0-8.236-6.292-2.974-14.414C26.202,32.088,35.455,43.218,48.445,43.218z"/>
</svg>
