<?xml version="1.0" encoding="utf-8"?>
<!-- Generator: Adobe Illustrator 17.0.0, SVG Export Plug-In . SVG Version: 6.00 Build 0)  -->
<!DOCTYPE svg PUBLIC "-//W3C//DTD SVG 1.1//EN" "http://www.w3.org/Graphics/SVG/1.1/DTD/svg11.dtd">
<svg version="1.1" id="Layer_1" xmlns="http://www.w3.org/2000/svg" xmlns:xlink="http://www.w3.org/1999/xlink" x="0px" y="0px"
	 width="122.026px" height="117.953px" viewBox="0 0 122.026 117.953" enable-background="new 0 0 122.026 117.953"
	 xml:space="preserve">
<g>
	<circle fill="none" cx="60.908" cy="59.657" r="53.392"/>
	<circle fill="#ED2190" cx="60.908" cy="59.657" r="53.392"/>
	<path fill="#FFFFFF" d="M61.471,51.889c0,0-2.367-16.044,14.203-18.675c0,0,9.206-0.263,12.625,4.734c0,0,6.005-1.052,9.749-3.481
		c0,0-2.125,5.945-6.172,8.082c0,0,4.149,0.114,8.297-1.91c0,0-4.857,7.589-7.69,7.69c0,0,2.813,24.555-20.802,39.977
		c0,0-19.117,13.334-47.23-0.643c0,0,12.852,2.088,23.133-6.426c0,0-11.245,0.161-14.297-10.924h6.747
		c0,0-12.37-2.731-12.048-15.583c0,0,3.855,2.088,6.426,1.767c0,0-11.566-8.835-4.177-20.241
		C30.234,36.259,43.228,51.889,61.471,51.889z"/>
</g>
</svg>
